<mxfile host="app.diagrams.net" modified="2021-08-04T06:59:21.253Z" agent="5.0 (Windows NT 10.0; Win64; x64) AppleWebKit/537.36 (KHTML, like Gecko) Chrome/92.0.4515.107 Safari/537.36" etag="pQko7m5ElEbg-XUuvFUx" version="14.7.0" type="github">
  <diagram id="C5RBs43oDa-KdzZeNtuy" name="Page-1">
    <mxGraphModel dx="2889" dy="1131" grid="1" gridSize="10" guides="1" tooltips="1" connect="1" arrows="1" fold="1" page="1" pageScale="1" pageWidth="827" pageHeight="1169" math="0" shadow="0">
      <root>
        <mxCell id="WIyWlLk6GJQsqaUBKTNV-0" />
        <mxCell id="WIyWlLk6GJQsqaUBKTNV-1" parent="WIyWlLk6GJQsqaUBKTNV-0" />
        <mxCell id="_c65qLYqdVQlX-Cjm_AF-22" style="edgeStyle=orthogonalEdgeStyle;rounded=0;orthogonalLoop=1;jettySize=auto;html=1;exitX=0.5;exitY=1;exitDx=0;exitDy=0;entryX=0.5;entryY=0;entryDx=0;entryDy=0;" parent="WIyWlLk6GJQsqaUBKTNV-1" source="_c65qLYqdVQlX-Cjm_AF-6" target="_c65qLYqdVQlX-Cjm_AF-14" edge="1">
          <mxGeometry relative="1" as="geometry" />
        </mxCell>
        <mxCell id="_c65qLYqdVQlX-Cjm_AF-6" value="PRINT &quot;\n&quot; 200 times" style="shape=parallelogram;perimeter=parallelogramPerimeter;whiteSpace=wrap;html=1;fixedSize=1;" parent="WIyWlLk6GJQsqaUBKTNV-1" vertex="1">
          <mxGeometry x="145" y="280" width="170" height="60" as="geometry" />
        </mxCell>
        <mxCell id="_c65qLYqdVQlX-Cjm_AF-21" style="edgeStyle=orthogonalEdgeStyle;rounded=0;orthogonalLoop=1;jettySize=auto;html=1;exitX=0.5;exitY=1;exitDx=0;exitDy=0;entryX=0.5;entryY=0;entryDx=0;entryDy=0;" parent="WIyWlLk6GJQsqaUBKTNV-1" source="_c65qLYqdVQlX-Cjm_AF-7" target="_c65qLYqdVQlX-Cjm_AF-6" edge="1">
          <mxGeometry relative="1" as="geometry" />
        </mxCell>
        <mxCell id="_c65qLYqdVQlX-Cjm_AF-7" value="DECLARE cmd" style="rounded=0;whiteSpace=wrap;html=1;" parent="WIyWlLk6GJQsqaUBKTNV-1" vertex="1">
          <mxGeometry x="170" y="170" width="120" height="60" as="geometry" />
        </mxCell>
        <mxCell id="_c65qLYqdVQlX-Cjm_AF-24" style="edgeStyle=orthogonalEdgeStyle;rounded=0;orthogonalLoop=1;jettySize=auto;html=1;entryX=0.499;entryY=0.05;entryDx=0;entryDy=0;entryPerimeter=0;" parent="WIyWlLk6GJQsqaUBKTNV-1" source="_c65qLYqdVQlX-Cjm_AF-8" target="_c65qLYqdVQlX-Cjm_AF-9" edge="1">
          <mxGeometry relative="1" as="geometry" />
        </mxCell>
        <mxCell id="_c65qLYqdVQlX-Cjm_AF-8" value="SET cmd = &quot;clear&quot;" style="rounded=0;whiteSpace=wrap;html=1;" parent="WIyWlLk6GJQsqaUBKTNV-1" vertex="1">
          <mxGeometry x="170" y="490" width="120" height="60" as="geometry" />
        </mxCell>
        <mxCell id="_c65qLYqdVQlX-Cjm_AF-25" style="edgeStyle=orthogonalEdgeStyle;rounded=0;orthogonalLoop=1;jettySize=auto;html=1;entryX=0;entryY=0.5;entryDx=0;entryDy=0;" parent="WIyWlLk6GJQsqaUBKTNV-1" source="_c65qLYqdVQlX-Cjm_AF-9" target="_c65qLYqdVQlX-Cjm_AF-10" edge="1">
          <mxGeometry relative="1" as="geometry" />
        </mxCell>
        <mxCell id="_c65qLYqdVQlX-Cjm_AF-26" style="edgeStyle=orthogonalEdgeStyle;rounded=0;orthogonalLoop=1;jettySize=auto;html=1;exitX=0.5;exitY=1;exitDx=0;exitDy=0;entryX=0.5;entryY=0;entryDx=0;entryDy=0;" parent="WIyWlLk6GJQsqaUBKTNV-1" source="_c65qLYqdVQlX-Cjm_AF-9" target="_c65qLYqdVQlX-Cjm_AF-13" edge="1">
          <mxGeometry relative="1" as="geometry" />
        </mxCell>
        <mxCell id="_c65qLYqdVQlX-Cjm_AF-9" value="IF os.name in (&#39;dos&#39;,&#39;nt&#39;)" style="rhombus;whiteSpace=wrap;html=1;" parent="WIyWlLk6GJQsqaUBKTNV-1" vertex="1">
          <mxGeometry x="135" y="610" width="190" height="80" as="geometry" />
        </mxCell>
        <mxCell id="_c65qLYqdVQlX-Cjm_AF-29" style="edgeStyle=orthogonalEdgeStyle;rounded=0;orthogonalLoop=1;jettySize=auto;html=1;exitX=0.5;exitY=1;exitDx=0;exitDy=0;entryX=1;entryY=0.5;entryDx=0;entryDy=0;" parent="WIyWlLk6GJQsqaUBKTNV-1" source="_c65qLYqdVQlX-Cjm_AF-10" target="_c65qLYqdVQlX-Cjm_AF-19" edge="1">
          <mxGeometry relative="1" as="geometry" />
        </mxCell>
        <mxCell id="_c65qLYqdVQlX-Cjm_AF-10" value="SET cmd = &quot;cls cmd&quot;" style="rounded=0;whiteSpace=wrap;html=1;" parent="WIyWlLk6GJQsqaUBKTNV-1" vertex="1">
          <mxGeometry x="435" y="620" width="120" height="60" as="geometry" />
        </mxCell>
        <mxCell id="_c65qLYqdVQlX-Cjm_AF-20" style="edgeStyle=orthogonalEdgeStyle;rounded=0;orthogonalLoop=1;jettySize=auto;html=1;exitX=0.5;exitY=1;exitDx=0;exitDy=0;entryX=0.5;entryY=0;entryDx=0;entryDy=0;" parent="WIyWlLk6GJQsqaUBKTNV-1" source="_c65qLYqdVQlX-Cjm_AF-12" target="_c65qLYqdVQlX-Cjm_AF-7" edge="1">
          <mxGeometry relative="1" as="geometry" />
        </mxCell>
        <mxCell id="_c65qLYqdVQlX-Cjm_AF-12" value="clearConsole()" style="ellipse;whiteSpace=wrap;html=1;" parent="WIyWlLk6GJQsqaUBKTNV-1" vertex="1">
          <mxGeometry x="180" y="60" width="100" height="50" as="geometry" />
        </mxCell>
        <mxCell id="_c65qLYqdVQlX-Cjm_AF-27" style="edgeStyle=orthogonalEdgeStyle;rounded=0;orthogonalLoop=1;jettySize=auto;html=1;exitX=0.5;exitY=1;exitDx=0;exitDy=0;entryX=0.5;entryY=0;entryDx=0;entryDy=0;" parent="WIyWlLk6GJQsqaUBKTNV-1" source="_c65qLYqdVQlX-Cjm_AF-13" target="_c65qLYqdVQlX-Cjm_AF-16" edge="1">
          <mxGeometry relative="1" as="geometry" />
        </mxCell>
        <mxCell id="_c65qLYqdVQlX-Cjm_AF-13" value="os.system(cmd)&lt;br&gt;time.sleep(0.1)" style="shape=process;whiteSpace=wrap;html=1;backgroundOutline=1;" parent="WIyWlLk6GJQsqaUBKTNV-1" vertex="1">
          <mxGeometry x="170" y="750" width="120" height="60" as="geometry" />
        </mxCell>
        <mxCell id="_c65qLYqdVQlX-Cjm_AF-23" style="edgeStyle=orthogonalEdgeStyle;rounded=0;orthogonalLoop=1;jettySize=auto;html=1;entryX=0.5;entryY=0;entryDx=0;entryDy=0;" parent="WIyWlLk6GJQsqaUBKTNV-1" source="_c65qLYqdVQlX-Cjm_AF-14" target="_c65qLYqdVQlX-Cjm_AF-8" edge="1">
          <mxGeometry relative="1" as="geometry" />
        </mxCell>
        <mxCell id="_c65qLYqdVQlX-Cjm_AF-14" value="time.sleep(0.1)" style="shape=process;whiteSpace=wrap;html=1;backgroundOutline=1;" parent="WIyWlLk6GJQsqaUBKTNV-1" vertex="1">
          <mxGeometry x="170" y="390" width="120" height="60" as="geometry" />
        </mxCell>
        <mxCell id="_c65qLYqdVQlX-Cjm_AF-28" style="edgeStyle=orthogonalEdgeStyle;rounded=0;orthogonalLoop=1;jettySize=auto;html=1;entryX=0.5;entryY=0;entryDx=0;entryDy=0;" parent="WIyWlLk6GJQsqaUBKTNV-1" source="_c65qLYqdVQlX-Cjm_AF-16" target="_c65qLYqdVQlX-Cjm_AF-19" edge="1">
          <mxGeometry relative="1" as="geometry" />
        </mxCell>
        <mxCell id="_c65qLYqdVQlX-Cjm_AF-16" value="PRINT &quot;-&quot; 70 times" style="shape=parallelogram;perimeter=parallelogramPerimeter;whiteSpace=wrap;html=1;fixedSize=1;" parent="WIyWlLk6GJQsqaUBKTNV-1" vertex="1">
          <mxGeometry x="145" y="870" width="170" height="60" as="geometry" />
        </mxCell>
        <mxCell id="_c65qLYqdVQlX-Cjm_AF-19" value="END" style="ellipse;whiteSpace=wrap;html=1;" parent="WIyWlLk6GJQsqaUBKTNV-1" vertex="1">
          <mxGeometry x="180" y="1000" width="100" height="50" as="geometry" />
        </mxCell>
        <mxCell id="_c65qLYqdVQlX-Cjm_AF-43" style="edgeStyle=orthogonalEdgeStyle;rounded=0;orthogonalLoop=1;jettySize=auto;html=1;exitX=0.5;exitY=1;exitDx=0;exitDy=0;entryX=0.5;entryY=0;entryDx=0;entryDy=0;" parent="WIyWlLk6GJQsqaUBKTNV-1" source="_c65qLYqdVQlX-Cjm_AF-30" target="_c65qLYqdVQlX-Cjm_AF-31" edge="1">
          <mxGeometry relative="1" as="geometry" />
        </mxCell>
        <mxCell id="_c65qLYqdVQlX-Cjm_AF-30" value="setupDB()" style="ellipse;whiteSpace=wrap;html=1;" parent="WIyWlLk6GJQsqaUBKTNV-1" vertex="1">
          <mxGeometry x="910" y="50" width="100" height="50" as="geometry" />
        </mxCell>
        <mxCell id="_c65qLYqdVQlX-Cjm_AF-44" style="edgeStyle=orthogonalEdgeStyle;rounded=0;orthogonalLoop=1;jettySize=auto;html=1;exitX=0.5;exitY=1;exitDx=0;exitDy=0;" parent="WIyWlLk6GJQsqaUBKTNV-1" source="_c65qLYqdVQlX-Cjm_AF-31" target="_c65qLYqdVQlX-Cjm_AF-32" edge="1">
          <mxGeometry relative="1" as="geometry" />
        </mxCell>
        <mxCell id="_c65qLYqdVQlX-Cjm_AF-31" value="DECLARE requiredFiles" style="rounded=0;whiteSpace=wrap;html=1;" parent="WIyWlLk6GJQsqaUBKTNV-1" vertex="1">
          <mxGeometry x="900" y="130" width="120" height="60" as="geometry" />
        </mxCell>
        <mxCell id="_c65qLYqdVQlX-Cjm_AF-45" style="edgeStyle=orthogonalEdgeStyle;rounded=0;orthogonalLoop=1;jettySize=auto;html=1;exitX=0.5;exitY=1;exitDx=0;exitDy=0;" parent="WIyWlLk6GJQsqaUBKTNV-1" source="_c65qLYqdVQlX-Cjm_AF-32" target="_c65qLYqdVQlX-Cjm_AF-33" edge="1">
          <mxGeometry relative="1" as="geometry" />
        </mxCell>
        <mxCell id="_c65qLYqdVQlX-Cjm_AF-32" value="SET&amp;nbsp;&lt;span&gt;requiredFiles = [&quot;Accounts.txt&quot;, &quot;Beverage.txt&quot;, &quot;Western.txt&quot;, &quot;Dessert.txt&quot;, &quot;Local.txt&quot;,&amp;nbsp;&lt;/span&gt;&lt;span&gt;&quot;Order.txt&quot;, &quot;Cart.txt&quot;]&lt;/span&gt;&lt;span&gt;&lt;br&gt;&lt;/span&gt;" style="rounded=0;whiteSpace=wrap;html=1;" parent="WIyWlLk6GJQsqaUBKTNV-1" vertex="1">
          <mxGeometry x="795" y="240" width="330" height="60" as="geometry" />
        </mxCell>
        <mxCell id="_c65qLYqdVQlX-Cjm_AF-46" style="edgeStyle=orthogonalEdgeStyle;rounded=0;orthogonalLoop=1;jettySize=auto;html=1;exitX=0.5;exitY=1;exitDx=0;exitDy=0;entryX=0.5;entryY=0;entryDx=0;entryDy=0;" parent="WIyWlLk6GJQsqaUBKTNV-1" source="_c65qLYqdVQlX-Cjm_AF-33" target="_c65qLYqdVQlX-Cjm_AF-40" edge="1">
          <mxGeometry relative="1" as="geometry" />
        </mxCell>
        <mxCell id="_c65qLYqdVQlX-Cjm_AF-47" style="edgeStyle=orthogonalEdgeStyle;rounded=0;orthogonalLoop=1;jettySize=auto;html=1;exitX=1;exitY=0.5;exitDx=0;exitDy=0;" parent="WIyWlLk6GJQsqaUBKTNV-1" source="_c65qLYqdVQlX-Cjm_AF-33" target="_c65qLYqdVQlX-Cjm_AF-37" edge="1">
          <mxGeometry relative="1" as="geometry" />
        </mxCell>
        <mxCell id="_c65qLYqdVQlX-Cjm_AF-33" value="FOR EACH file IN requiredFiles" style="rhombus;whiteSpace=wrap;html=1;" parent="WIyWlLk6GJQsqaUBKTNV-1" vertex="1">
          <mxGeometry x="817.5" y="370" width="285" height="80" as="geometry" />
        </mxCell>
        <mxCell id="_c65qLYqdVQlX-Cjm_AF-34" value="True" style="text;html=1;align=center;verticalAlign=middle;resizable=0;points=[];autosize=1;" parent="WIyWlLk6GJQsqaUBKTNV-1" vertex="1">
          <mxGeometry x="315" y="620" width="40" height="20" as="geometry" />
        </mxCell>
        <mxCell id="_c65qLYqdVQlX-Cjm_AF-35" value="False" style="text;html=1;align=center;verticalAlign=middle;resizable=0;points=[];autosize=1;" parent="WIyWlLk6GJQsqaUBKTNV-1" vertex="1">
          <mxGeometry x="240" y="710" width="50" height="20" as="geometry" />
        </mxCell>
        <mxCell id="_c65qLYqdVQlX-Cjm_AF-36" value="True" style="text;html=1;align=center;verticalAlign=middle;resizable=0;points=[];autosize=1;" parent="WIyWlLk6GJQsqaUBKTNV-1" vertex="1">
          <mxGeometry x="1100" y="380" width="40" height="20" as="geometry" />
        </mxCell>
        <mxCell id="_c65qLYqdVQlX-Cjm_AF-48" style="edgeStyle=orthogonalEdgeStyle;rounded=0;orthogonalLoop=1;jettySize=auto;html=1;entryX=0.5;entryY=0;entryDx=0;entryDy=0;" parent="WIyWlLk6GJQsqaUBKTNV-1" source="_c65qLYqdVQlX-Cjm_AF-37" target="_c65qLYqdVQlX-Cjm_AF-38" edge="1">
          <mxGeometry relative="1" as="geometry" />
        </mxCell>
        <mxCell id="_c65qLYqdVQlX-Cjm_AF-37" value="OPENFILE file FOR APPEND" style="whiteSpace=wrap;html=1;" parent="WIyWlLk6GJQsqaUBKTNV-1" vertex="1">
          <mxGeometry x="1180" y="380" width="120" height="60" as="geometry" />
        </mxCell>
        <mxCell id="_c65qLYqdVQlX-Cjm_AF-50" style="edgeStyle=orthogonalEdgeStyle;rounded=0;orthogonalLoop=1;jettySize=auto;html=1;entryX=1;entryY=0.5;entryDx=0;entryDy=0;" parent="WIyWlLk6GJQsqaUBKTNV-1" source="_c65qLYqdVQlX-Cjm_AF-38" target="_c65qLYqdVQlX-Cjm_AF-42" edge="1">
          <mxGeometry relative="1" as="geometry">
            <Array as="points">
              <mxPoint x="1240" y="885" />
            </Array>
          </mxGeometry>
        </mxCell>
        <mxCell id="_c65qLYqdVQlX-Cjm_AF-38" value="CONTINUE" style="whiteSpace=wrap;html=1;" parent="WIyWlLk6GJQsqaUBKTNV-1" vertex="1">
          <mxGeometry x="1180" y="550" width="120" height="60" as="geometry" />
        </mxCell>
        <mxCell id="_c65qLYqdVQlX-Cjm_AF-49" style="edgeStyle=orthogonalEdgeStyle;rounded=0;orthogonalLoop=1;jettySize=auto;html=1;entryX=0.5;entryY=0;entryDx=0;entryDy=0;" parent="WIyWlLk6GJQsqaUBKTNV-1" source="_c65qLYqdVQlX-Cjm_AF-40" target="_c65qLYqdVQlX-Cjm_AF-41" edge="1">
          <mxGeometry relative="1" as="geometry" />
        </mxCell>
        <mxCell id="_c65qLYqdVQlX-Cjm_AF-40" value="OPENFILE Cart.txt FOR WRITE" style="whiteSpace=wrap;html=1;" parent="WIyWlLk6GJQsqaUBKTNV-1" vertex="1">
          <mxGeometry x="900" y="540" width="120" height="60" as="geometry" />
        </mxCell>
        <mxCell id="_c65qLYqdVQlX-Cjm_AF-51" style="edgeStyle=orthogonalEdgeStyle;rounded=0;orthogonalLoop=1;jettySize=auto;html=1;entryX=0.5;entryY=0;entryDx=0;entryDy=0;" parent="WIyWlLk6GJQsqaUBKTNV-1" source="_c65qLYqdVQlX-Cjm_AF-41" target="_c65qLYqdVQlX-Cjm_AF-42" edge="1">
          <mxGeometry relative="1" as="geometry" />
        </mxCell>
        <mxCell id="_c65qLYqdVQlX-Cjm_AF-41" value="CLOSEFILE Cart.txt" style="whiteSpace=wrap;html=1;" parent="WIyWlLk6GJQsqaUBKTNV-1" vertex="1">
          <mxGeometry x="900" y="680" width="120" height="60" as="geometry" />
        </mxCell>
        <mxCell id="_c65qLYqdVQlX-Cjm_AF-42" value="RETURN" style="ellipse;whiteSpace=wrap;html=1;" parent="WIyWlLk6GJQsqaUBKTNV-1" vertex="1">
          <mxGeometry x="910" y="860" width="100" height="50" as="geometry" />
        </mxCell>
        <mxCell id="_c65qLYqdVQlX-Cjm_AF-56" style="edgeStyle=orthogonalEdgeStyle;rounded=0;orthogonalLoop=1;jettySize=auto;html=1;exitX=0.5;exitY=1;exitDx=0;exitDy=0;entryX=0.5;entryY=0;entryDx=0;entryDy=0;" parent="WIyWlLk6GJQsqaUBKTNV-1" source="_c65qLYqdVQlX-Cjm_AF-52" target="_c65qLYqdVQlX-Cjm_AF-53" edge="1">
          <mxGeometry relative="1" as="geometry" />
        </mxCell>
        <mxCell id="_c65qLYqdVQlX-Cjm_AF-52" value="u_insertLine(symbol = &#39;_&#39;, nextLine = True, length = 70" style="ellipse;whiteSpace=wrap;html=1;" parent="WIyWlLk6GJQsqaUBKTNV-1" vertex="1">
          <mxGeometry x="1540" y="70" width="200" height="60" as="geometry" />
        </mxCell>
        <mxCell id="_c65qLYqdVQlX-Cjm_AF-58" style="edgeStyle=orthogonalEdgeStyle;rounded=0;orthogonalLoop=1;jettySize=auto;html=1;exitX=0.5;exitY=1;exitDx=0;exitDy=0;" parent="WIyWlLk6GJQsqaUBKTNV-1" source="_c65qLYqdVQlX-Cjm_AF-53" target="_c65qLYqdVQlX-Cjm_AF-54" edge="1">
          <mxGeometry relative="1" as="geometry" />
        </mxCell>
        <mxCell id="_c65qLYqdVQlX-Cjm_AF-60" style="edgeStyle=orthogonalEdgeStyle;rounded=0;orthogonalLoop=1;jettySize=auto;html=1;exitX=1;exitY=0.5;exitDx=0;exitDy=0;entryX=0;entryY=0.5;entryDx=0;entryDy=0;" parent="WIyWlLk6GJQsqaUBKTNV-1" source="_c65qLYqdVQlX-Cjm_AF-53" target="_c65qLYqdVQlX-Cjm_AF-55" edge="1">
          <mxGeometry relative="1" as="geometry" />
        </mxCell>
        <mxCell id="_c65qLYqdVQlX-Cjm_AF-53" value="IF nextLine == True" style="rhombus;whiteSpace=wrap;html=1;" parent="WIyWlLk6GJQsqaUBKTNV-1" vertex="1">
          <mxGeometry x="1500" y="215" width="280" height="80" as="geometry" />
        </mxCell>
        <mxCell id="_c65qLYqdVQlX-Cjm_AF-59" style="edgeStyle=orthogonalEdgeStyle;rounded=0;orthogonalLoop=1;jettySize=auto;html=1;exitX=0.5;exitY=1;exitDx=0;exitDy=0;entryX=0.5;entryY=0;entryDx=0;entryDy=0;" parent="WIyWlLk6GJQsqaUBKTNV-1" source="_c65qLYqdVQlX-Cjm_AF-54" target="_c65qLYqdVQlX-Cjm_AF-57" edge="1">
          <mxGeometry relative="1" as="geometry" />
        </mxCell>
        <mxCell id="_c65qLYqdVQlX-Cjm_AF-54" value="PRINT &quot;\n&quot; + symbol * length" style="whiteSpace=wrap;html=1;" parent="WIyWlLk6GJQsqaUBKTNV-1" vertex="1">
          <mxGeometry x="1545" y="365" width="190" height="60" as="geometry" />
        </mxCell>
        <mxCell id="_c65qLYqdVQlX-Cjm_AF-61" style="edgeStyle=orthogonalEdgeStyle;rounded=0;orthogonalLoop=1;jettySize=auto;html=1;exitX=0.5;exitY=1;exitDx=0;exitDy=0;entryX=1;entryY=0.5;entryDx=0;entryDy=0;" parent="WIyWlLk6GJQsqaUBKTNV-1" source="_c65qLYqdVQlX-Cjm_AF-55" target="_c65qLYqdVQlX-Cjm_AF-57" edge="1">
          <mxGeometry relative="1" as="geometry" />
        </mxCell>
        <mxCell id="_c65qLYqdVQlX-Cjm_AF-55" value="PRINT symbol * length" style="whiteSpace=wrap;html=1;" parent="WIyWlLk6GJQsqaUBKTNV-1" vertex="1">
          <mxGeometry x="1870" y="225" width="190" height="60" as="geometry" />
        </mxCell>
        <mxCell id="_c65qLYqdVQlX-Cjm_AF-57" value="RETURN" style="ellipse;whiteSpace=wrap;html=1;" parent="WIyWlLk6GJQsqaUBKTNV-1" vertex="1">
          <mxGeometry x="1590" y="535" width="100" height="50" as="geometry" />
        </mxCell>
        <mxCell id="_c65qLYqdVQlX-Cjm_AF-67" style="edgeStyle=orthogonalEdgeStyle;rounded=0;orthogonalLoop=1;jettySize=auto;html=1;" parent="WIyWlLk6GJQsqaUBKTNV-1" source="_c65qLYqdVQlX-Cjm_AF-62" target="_c65qLYqdVQlX-Cjm_AF-63" edge="1">
          <mxGeometry relative="1" as="geometry" />
        </mxCell>
        <mxCell id="_c65qLYqdVQlX-Cjm_AF-62" value="u_insertHeader(header, backButton = True)" style="ellipse;whiteSpace=wrap;html=1;" parent="WIyWlLk6GJQsqaUBKTNV-1" vertex="1">
          <mxGeometry x="2250" y="60" width="160" height="50" as="geometry" />
        </mxCell>
        <mxCell id="_c65qLYqdVQlX-Cjm_AF-68" style="edgeStyle=orthogonalEdgeStyle;rounded=0;orthogonalLoop=1;jettySize=auto;html=1;" parent="WIyWlLk6GJQsqaUBKTNV-1" source="_c65qLYqdVQlX-Cjm_AF-63" target="_c65qLYqdVQlX-Cjm_AF-64" edge="1">
          <mxGeometry relative="1" as="geometry" />
        </mxCell>
        <mxCell id="_c65qLYqdVQlX-Cjm_AF-70" style="edgeStyle=orthogonalEdgeStyle;rounded=0;orthogonalLoop=1;jettySize=auto;html=1;entryX=0;entryY=0.5;entryDx=0;entryDy=0;" parent="WIyWlLk6GJQsqaUBKTNV-1" source="_c65qLYqdVQlX-Cjm_AF-63" target="_c65qLYqdVQlX-Cjm_AF-65" edge="1">
          <mxGeometry relative="1" as="geometry" />
        </mxCell>
        <mxCell id="_c65qLYqdVQlX-Cjm_AF-63" value="if backButton" style="rhombus;whiteSpace=wrap;html=1;" parent="WIyWlLk6GJQsqaUBKTNV-1" vertex="1">
          <mxGeometry x="2275" y="180" width="110" height="80" as="geometry" />
        </mxCell>
        <mxCell id="_c65qLYqdVQlX-Cjm_AF-69" style="edgeStyle=orthogonalEdgeStyle;rounded=0;orthogonalLoop=1;jettySize=auto;html=1;" parent="WIyWlLk6GJQsqaUBKTNV-1" source="_c65qLYqdVQlX-Cjm_AF-64" target="_c65qLYqdVQlX-Cjm_AF-66" edge="1">
          <mxGeometry relative="1" as="geometry" />
        </mxCell>
        <mxCell id="_c65qLYqdVQlX-Cjm_AF-64" value="PRINT &quot;[BACK] Back&lt;br&gt;PRINT header.center(70,&#39; &#39;)" style="whiteSpace=wrap;html=1;" parent="WIyWlLk6GJQsqaUBKTNV-1" vertex="1">
          <mxGeometry x="2232.5" y="340" width="195" height="60" as="geometry" />
        </mxCell>
        <mxCell id="_c65qLYqdVQlX-Cjm_AF-71" style="edgeStyle=orthogonalEdgeStyle;rounded=0;orthogonalLoop=1;jettySize=auto;html=1;entryX=1;entryY=0.5;entryDx=0;entryDy=0;" parent="WIyWlLk6GJQsqaUBKTNV-1" source="_c65qLYqdVQlX-Cjm_AF-65" target="_c65qLYqdVQlX-Cjm_AF-66" edge="1">
          <mxGeometry relative="1" as="geometry">
            <Array as="points">
              <mxPoint x="2580" y="510" />
            </Array>
          </mxGeometry>
        </mxCell>
        <mxCell id="_c65qLYqdVQlX-Cjm_AF-65" value="PRINT &quot;\n&quot; + header.center(70,&#39; &#39;)" style="whiteSpace=wrap;html=1;" parent="WIyWlLk6GJQsqaUBKTNV-1" vertex="1">
          <mxGeometry x="2520" y="190" width="120" height="60" as="geometry" />
        </mxCell>
        <mxCell id="_c65qLYqdVQlX-Cjm_AF-73" style="edgeStyle=orthogonalEdgeStyle;rounded=0;orthogonalLoop=1;jettySize=auto;html=1;" parent="WIyWlLk6GJQsqaUBKTNV-1" source="_c65qLYqdVQlX-Cjm_AF-66" target="_c65qLYqdVQlX-Cjm_AF-72" edge="1">
          <mxGeometry relative="1" as="geometry" />
        </mxCell>
        <mxCell id="_c65qLYqdVQlX-Cjm_AF-66" value="PRINT &quot;_&quot; 70 times + &quot;\n&quot;" style="whiteSpace=wrap;html=1;" parent="WIyWlLk6GJQsqaUBKTNV-1" vertex="1">
          <mxGeometry x="2232.5" y="480" width="195" height="60" as="geometry" />
        </mxCell>
        <mxCell id="_c65qLYqdVQlX-Cjm_AF-72" value="RETURN" style="ellipse;whiteSpace=wrap;html=1;" parent="WIyWlLk6GJQsqaUBKTNV-1" vertex="1">
          <mxGeometry x="2280" y="620" width="100" height="50" as="geometry" />
        </mxCell>
        <mxCell id="_c65qLYqdVQlX-Cjm_AF-74" value="True" style="text;html=1;align=center;verticalAlign=middle;resizable=0;points=[];autosize=1;" parent="WIyWlLk6GJQsqaUBKTNV-1" vertex="1">
          <mxGeometry x="2335" y="275" width="40" height="20" as="geometry" />
        </mxCell>
        <mxCell id="_c65qLYqdVQlX-Cjm_AF-75" value="False" style="text;html=1;align=center;verticalAlign=middle;resizable=0;points=[];autosize=1;" parent="WIyWlLk6GJQsqaUBKTNV-1" vertex="1">
          <mxGeometry x="2385" y="190" width="50" height="20" as="geometry" />
        </mxCell>
        <mxCell id="M5VF-B5E-6MB54186Zp0-30" style="edgeStyle=orthogonalEdgeStyle;rounded=0;orthogonalLoop=1;jettySize=auto;html=1;" parent="WIyWlLk6GJQsqaUBKTNV-1" source="M5VF-B5E-6MB54186Zp0-0" target="M5VF-B5E-6MB54186Zp0-1" edge="1">
          <mxGeometry relative="1" as="geometry" />
        </mxCell>
        <mxCell id="M5VF-B5E-6MB54186Zp0-0" value="u_constructButton(columnAmt, buttonlist, moveLeftAmt = 9, resolution = 70)" style="ellipse;whiteSpace=wrap;html=1;" parent="WIyWlLk6GJQsqaUBKTNV-1" vertex="1">
          <mxGeometry x="2930" y="60" width="240" height="70" as="geometry" />
        </mxCell>
        <mxCell id="M5VF-B5E-6MB54186Zp0-29" style="edgeStyle=orthogonalEdgeStyle;rounded=0;orthogonalLoop=1;jettySize=auto;html=1;" parent="WIyWlLk6GJQsqaUBKTNV-1" source="M5VF-B5E-6MB54186Zp0-1" target="M5VF-B5E-6MB54186Zp0-2" edge="1">
          <mxGeometry relative="1" as="geometry" />
        </mxCell>
        <mxCell id="M5VF-B5E-6MB54186Zp0-1" value="DECLARE gridSize, leftPadding, col, text, buttonsCnt, textLength, remainingSpace" style="whiteSpace=wrap;html=1;" parent="WIyWlLk6GJQsqaUBKTNV-1" vertex="1">
          <mxGeometry x="2930" y="180" width="240" height="60" as="geometry" />
        </mxCell>
        <mxCell id="M5VF-B5E-6MB54186Zp0-28" style="edgeStyle=orthogonalEdgeStyle;rounded=0;orthogonalLoop=1;jettySize=auto;html=1;" parent="WIyWlLk6GJQsqaUBKTNV-1" source="M5VF-B5E-6MB54186Zp0-2" target="M5VF-B5E-6MB54186Zp0-4" edge="1">
          <mxGeometry relative="1" as="geometry" />
        </mxCell>
        <mxCell id="M5VF-B5E-6MB54186Zp0-2" value="&amp;nbsp;CALCULATE&lt;br&gt;gridSize = int(resolution/columtAmt)&lt;br&gt;leftPadding = int((gridSize/2) - moveLeftAmt&lt;br&gt;&lt;br&gt;SET&lt;br&gt;col = 0&lt;br&gt;text = &#39;&#39;&lt;br&gt;buttonsCnt = 0" style="whiteSpace=wrap;html=1;" parent="WIyWlLk6GJQsqaUBKTNV-1" vertex="1">
          <mxGeometry x="2880" y="270" width="340" height="130" as="geometry" />
        </mxCell>
        <mxCell id="M5VF-B5E-6MB54186Zp0-27" style="edgeStyle=orthogonalEdgeStyle;rounded=0;orthogonalLoop=1;jettySize=auto;html=1;entryX=0.5;entryY=0;entryDx=0;entryDy=0;" parent="WIyWlLk6GJQsqaUBKTNV-1" source="M5VF-B5E-6MB54186Zp0-4" target="M5VF-B5E-6MB54186Zp0-5" edge="1">
          <mxGeometry relative="1" as="geometry" />
        </mxCell>
        <mxCell id="M5VF-B5E-6MB54186Zp0-4" value="FOR EACH buttons IN buttonList" style="rhombus;whiteSpace=wrap;html=1;" parent="WIyWlLk6GJQsqaUBKTNV-1" vertex="1">
          <mxGeometry x="2940" y="480" width="220" height="80" as="geometry" />
        </mxCell>
        <mxCell id="M5VF-B5E-6MB54186Zp0-26" style="edgeStyle=orthogonalEdgeStyle;rounded=0;orthogonalLoop=1;jettySize=auto;html=1;" parent="WIyWlLk6GJQsqaUBKTNV-1" source="M5VF-B5E-6MB54186Zp0-5" target="M5VF-B5E-6MB54186Zp0-6" edge="1">
          <mxGeometry relative="1" as="geometry" />
        </mxCell>
        <mxCell id="M5VF-B5E-6MB54186Zp0-5" value="INCREMENT buttonsCnt&lt;br&gt;col" style="whiteSpace=wrap;html=1;" parent="WIyWlLk6GJQsqaUBKTNV-1" vertex="1">
          <mxGeometry x="2990" y="640" width="120" height="60" as="geometry" />
        </mxCell>
        <mxCell id="M5VF-B5E-6MB54186Zp0-25" style="edgeStyle=orthogonalEdgeStyle;rounded=0;orthogonalLoop=1;jettySize=auto;html=1;entryX=0.5;entryY=0;entryDx=0;entryDy=0;" parent="WIyWlLk6GJQsqaUBKTNV-1" source="M5VF-B5E-6MB54186Zp0-6" target="M5VF-B5E-6MB54186Zp0-7" edge="1">
          <mxGeometry relative="1" as="geometry" />
        </mxCell>
        <mxCell id="M5VF-B5E-6MB54186Zp0-6" value="CALCULATE&lt;br&gt;text = text + &#39; &#39; * leftPadding + buttons[0] + buttons[1]&amp;nbsp;" style="whiteSpace=wrap;html=1;" parent="WIyWlLk6GJQsqaUBKTNV-1" vertex="1">
          <mxGeometry x="2915" y="760" width="270" height="60" as="geometry" />
        </mxCell>
        <mxCell id="M5VF-B5E-6MB54186Zp0-24" style="edgeStyle=orthogonalEdgeStyle;rounded=0;orthogonalLoop=1;jettySize=auto;html=1;entryX=0.5;entryY=0;entryDx=0;entryDy=0;" parent="WIyWlLk6GJQsqaUBKTNV-1" source="M5VF-B5E-6MB54186Zp0-7" target="M5VF-B5E-6MB54186Zp0-8" edge="1">
          <mxGeometry relative="1" as="geometry" />
        </mxCell>
        <mxCell id="M5VF-B5E-6MB54186Zp0-7" value="CALCULATE&lt;br&gt;textLength = len(test) - (gridSize * (col - 1))" style="whiteSpace=wrap;html=1;" parent="WIyWlLk6GJQsqaUBKTNV-1" vertex="1">
          <mxGeometry x="2960" y="870" width="180" height="90" as="geometry" />
        </mxCell>
        <mxCell id="M5VF-B5E-6MB54186Zp0-11" style="edgeStyle=orthogonalEdgeStyle;rounded=0;orthogonalLoop=1;jettySize=auto;html=1;exitX=1;exitY=0.5;exitDx=0;exitDy=0;entryX=0;entryY=0.5;entryDx=0;entryDy=0;" parent="WIyWlLk6GJQsqaUBKTNV-1" source="M5VF-B5E-6MB54186Zp0-8" target="M5VF-B5E-6MB54186Zp0-10" edge="1">
          <mxGeometry relative="1" as="geometry" />
        </mxCell>
        <mxCell id="M5VF-B5E-6MB54186Zp0-19" style="edgeStyle=orthogonalEdgeStyle;rounded=0;orthogonalLoop=1;jettySize=auto;html=1;exitX=0.5;exitY=1;exitDx=0;exitDy=0;entryX=0.5;entryY=0;entryDx=0;entryDy=0;" parent="WIyWlLk6GJQsqaUBKTNV-1" source="M5VF-B5E-6MB54186Zp0-8" target="M5VF-B5E-6MB54186Zp0-13" edge="1">
          <mxGeometry relative="1" as="geometry" />
        </mxCell>
        <mxCell id="M5VF-B5E-6MB54186Zp0-8" value="IF textLength &amp;lt;= gridSize" style="rhombus;whiteSpace=wrap;html=1;" parent="WIyWlLk6GJQsqaUBKTNV-1" vertex="1">
          <mxGeometry x="2960" y="1020" width="180" height="80" as="geometry" />
        </mxCell>
        <mxCell id="M5VF-B5E-6MB54186Zp0-9" value="True" style="text;html=1;align=center;verticalAlign=middle;resizable=0;points=[];autosize=1;" parent="WIyWlLk6GJQsqaUBKTNV-1" vertex="1">
          <mxGeometry x="3150" y="1020" width="40" height="20" as="geometry" />
        </mxCell>
        <mxCell id="M5VF-B5E-6MB54186Zp0-33" style="edgeStyle=orthogonalEdgeStyle;rounded=0;orthogonalLoop=1;jettySize=auto;html=1;" parent="WIyWlLk6GJQsqaUBKTNV-1" source="M5VF-B5E-6MB54186Zp0-10" edge="1">
          <mxGeometry relative="1" as="geometry">
            <mxPoint x="3050" y="1160" as="targetPoint" />
            <Array as="points">
              <mxPoint x="3580" y="1060" />
              <mxPoint x="3580" y="1160" />
            </Array>
          </mxGeometry>
        </mxCell>
        <mxCell id="M5VF-B5E-6MB54186Zp0-10" value="CALCULATE remainingSpace = gridSize - textLength&lt;br&gt;text = text + &#39; &#39; * remainingSpace" style="whiteSpace=wrap;html=1;" parent="WIyWlLk6GJQsqaUBKTNV-1" vertex="1">
          <mxGeometry x="3240" y="1030" width="270" height="60" as="geometry" />
        </mxCell>
        <mxCell id="M5VF-B5E-6MB54186Zp0-17" style="edgeStyle=orthogonalEdgeStyle;rounded=0;orthogonalLoop=1;jettySize=auto;html=1;exitX=1;exitY=0.5;exitDx=0;exitDy=0;" parent="WIyWlLk6GJQsqaUBKTNV-1" source="M5VF-B5E-6MB54186Zp0-13" target="M5VF-B5E-6MB54186Zp0-14" edge="1">
          <mxGeometry relative="1" as="geometry" />
        </mxCell>
        <mxCell id="M5VF-B5E-6MB54186Zp0-22" style="edgeStyle=orthogonalEdgeStyle;rounded=0;orthogonalLoop=1;jettySize=auto;html=1;entryX=0.5;entryY=0;entryDx=0;entryDy=0;" parent="WIyWlLk6GJQsqaUBKTNV-1" source="M5VF-B5E-6MB54186Zp0-13" target="M5VF-B5E-6MB54186Zp0-21" edge="1">
          <mxGeometry relative="1" as="geometry" />
        </mxCell>
        <mxCell id="M5VF-B5E-6MB54186Zp0-13" value="IF col % columtAmt == 0 or &lt;br&gt;buttonsCnt == len(buttonList)" style="rhombus;whiteSpace=wrap;html=1;" parent="WIyWlLk6GJQsqaUBKTNV-1" vertex="1">
          <mxGeometry x="2935" y="1200" width="230" height="70" as="geometry" />
        </mxCell>
        <mxCell id="M5VF-B5E-6MB54186Zp0-18" style="edgeStyle=orthogonalEdgeStyle;rounded=0;orthogonalLoop=1;jettySize=auto;html=1;exitX=0.5;exitY=1;exitDx=0;exitDy=0;entryX=0.5;entryY=0;entryDx=0;entryDy=0;" parent="WIyWlLk6GJQsqaUBKTNV-1" source="M5VF-B5E-6MB54186Zp0-14" target="M5VF-B5E-6MB54186Zp0-15" edge="1">
          <mxGeometry relative="1" as="geometry" />
        </mxCell>
        <mxCell id="M5VF-B5E-6MB54186Zp0-14" value="PRINT text + &quot;\n&quot;" style="shape=parallelogram;perimeter=parallelogramPerimeter;whiteSpace=wrap;html=1;fixedSize=1;" parent="WIyWlLk6GJQsqaUBKTNV-1" vertex="1">
          <mxGeometry x="3286" y="1205" width="178" height="60" as="geometry" />
        </mxCell>
        <mxCell id="M5VF-B5E-6MB54186Zp0-34" style="edgeStyle=orthogonalEdgeStyle;rounded=0;orthogonalLoop=1;jettySize=auto;html=1;entryX=1;entryY=0.5;entryDx=0;entryDy=0;" parent="WIyWlLk6GJQsqaUBKTNV-1" source="M5VF-B5E-6MB54186Zp0-15" target="M5VF-B5E-6MB54186Zp0-21" edge="1">
          <mxGeometry relative="1" as="geometry">
            <Array as="points">
              <mxPoint x="3375" y="1495" />
            </Array>
          </mxGeometry>
        </mxCell>
        <mxCell id="M5VF-B5E-6MB54186Zp0-15" value="SET&amp;nbsp;&lt;br&gt;text = &#39; &#39;&lt;br&gt;col = 0" style="rounded=0;whiteSpace=wrap;html=1;" parent="WIyWlLk6GJQsqaUBKTNV-1" vertex="1">
          <mxGeometry x="3302.5" y="1340" width="145" height="60" as="geometry" />
        </mxCell>
        <mxCell id="M5VF-B5E-6MB54186Zp0-16" value="True" style="text;html=1;align=center;verticalAlign=middle;resizable=0;points=[];autosize=1;" parent="WIyWlLk6GJQsqaUBKTNV-1" vertex="1">
          <mxGeometry x="3180" y="1200" width="40" height="20" as="geometry" />
        </mxCell>
        <mxCell id="M5VF-B5E-6MB54186Zp0-20" value="False" style="text;html=1;align=center;verticalAlign=middle;resizable=0;points=[];autosize=1;" parent="WIyWlLk6GJQsqaUBKTNV-1" vertex="1">
          <mxGeometry x="3055" y="1110" width="50" height="20" as="geometry" />
        </mxCell>
        <mxCell id="M5VF-B5E-6MB54186Zp0-21" value="RETURN" style="ellipse;whiteSpace=wrap;html=1;" parent="WIyWlLk6GJQsqaUBKTNV-1" vertex="1">
          <mxGeometry x="3000" y="1470" width="100" height="50" as="geometry" />
        </mxCell>
        <mxCell id="M5VF-B5E-6MB54186Zp0-23" value="False" style="text;html=1;align=center;verticalAlign=middle;resizable=0;points=[];autosize=1;" parent="WIyWlLk6GJQsqaUBKTNV-1" vertex="1">
          <mxGeometry x="3060" y="1280" width="50" height="20" as="geometry" />
        </mxCell>
        <mxCell id="-O2qLY4RrY-de6msVh1I-4" style="edgeStyle=orthogonalEdgeStyle;rounded=0;orthogonalLoop=1;jettySize=auto;html=1;exitX=0.5;exitY=1;exitDx=0;exitDy=0;" parent="WIyWlLk6GJQsqaUBKTNV-1" source="-O2qLY4RrY-de6msVh1I-0" target="-O2qLY4RrY-de6msVh1I-1" edge="1">
          <mxGeometry relative="1" as="geometry" />
        </mxCell>
        <mxCell id="-O2qLY4RrY-de6msVh1I-0" value="u_popup(message, transitionSec = 2, nextLineAmt = 4)" style="ellipse;whiteSpace=wrap;html=1;" parent="WIyWlLk6GJQsqaUBKTNV-1" vertex="1">
          <mxGeometry x="3490" y="55" width="210" height="60" as="geometry" />
        </mxCell>
        <mxCell id="-O2qLY4RrY-de6msVh1I-5" style="edgeStyle=orthogonalEdgeStyle;rounded=0;orthogonalLoop=1;jettySize=auto;html=1;exitX=0.5;exitY=1;exitDx=0;exitDy=0;entryX=0.5;entryY=0;entryDx=0;entryDy=0;" parent="WIyWlLk6GJQsqaUBKTNV-1" source="-O2qLY4RrY-de6msVh1I-1" target="-O2qLY4RrY-de6msVh1I-2" edge="1">
          <mxGeometry relative="1" as="geometry" />
        </mxCell>
        <mxCell id="-O2qLY4RrY-de6msVh1I-1" value="clearConsole()" style="shape=process;whiteSpace=wrap;html=1;backgroundOutline=1;" parent="WIyWlLk6GJQsqaUBKTNV-1" vertex="1">
          <mxGeometry x="3535" y="180" width="120" height="60" as="geometry" />
        </mxCell>
        <mxCell id="-O2qLY4RrY-de6msVh1I-6" value="d" style="edgeStyle=orthogonalEdgeStyle;rounded=0;orthogonalLoop=1;jettySize=auto;html=1;exitX=0.5;exitY=1;exitDx=0;exitDy=0;" parent="WIyWlLk6GJQsqaUBKTNV-1" source="-O2qLY4RrY-de6msVh1I-2" target="-O2qLY4RrY-de6msVh1I-3" edge="1">
          <mxGeometry relative="1" as="geometry" />
        </mxCell>
        <mxCell id="-O2qLY4RrY-de6msVh1I-2" value="PRINT &quot;\n&quot; * nextLineAmt&lt;br&gt;PRINT message.center(70, &#39; &#39;)" style="shape=parallelogram;perimeter=parallelogramPerimeter;whiteSpace=wrap;html=1;fixedSize=1;" parent="WIyWlLk6GJQsqaUBKTNV-1" vertex="1">
          <mxGeometry x="3487.5" y="305" width="215" height="60" as="geometry" />
        </mxCell>
        <mxCell id="-O2qLY4RrY-de6msVh1I-8" style="edgeStyle=orthogonalEdgeStyle;rounded=0;orthogonalLoop=1;jettySize=auto;html=1;exitX=0.5;exitY=1;exitDx=0;exitDy=0;entryX=0.5;entryY=0;entryDx=0;entryDy=0;" parent="WIyWlLk6GJQsqaUBKTNV-1" source="-O2qLY4RrY-de6msVh1I-3" target="-O2qLY4RrY-de6msVh1I-7" edge="1">
          <mxGeometry relative="1" as="geometry" />
        </mxCell>
        <mxCell id="-O2qLY4RrY-de6msVh1I-3" value="time.sleep(transitionSec)" style="shape=process;whiteSpace=wrap;html=1;backgroundOutline=1;" parent="WIyWlLk6GJQsqaUBKTNV-1" vertex="1">
          <mxGeometry x="3492.5" y="440" width="205" height="60" as="geometry" />
        </mxCell>
        <mxCell id="-O2qLY4RrY-de6msVh1I-7" value="RETURN" style="ellipse;whiteSpace=wrap;html=1;" parent="WIyWlLk6GJQsqaUBKTNV-1" vertex="1">
          <mxGeometry x="3545" y="590" width="100" height="50" as="geometry" />
        </mxCell>
        <mxCell id="-O2qLY4RrY-de6msVh1I-26" style="edgeStyle=orthogonalEdgeStyle;rounded=0;orthogonalLoop=1;jettySize=auto;html=1;exitX=0.5;exitY=1;exitDx=0;exitDy=0;entryX=0.5;entryY=0;entryDx=0;entryDy=0;" parent="WIyWlLk6GJQsqaUBKTNV-1" source="-O2qLY4RrY-de6msVh1I-9" target="-O2qLY4RrY-de6msVh1I-11" edge="1">
          <mxGeometry relative="1" as="geometry" />
        </mxCell>
        <mxCell id="-O2qLY4RrY-de6msVh1I-9" value="list_ToSingleString(list)" style="ellipse;whiteSpace=wrap;html=1;" parent="WIyWlLk6GJQsqaUBKTNV-1" vertex="1">
          <mxGeometry x="110" y="1830" width="190" height="50" as="geometry" />
        </mxCell>
        <mxCell id="-O2qLY4RrY-de6msVh1I-27" style="edgeStyle=orthogonalEdgeStyle;rounded=0;orthogonalLoop=1;jettySize=auto;html=1;exitX=0.5;exitY=1;exitDx=0;exitDy=0;entryX=0.5;entryY=0;entryDx=0;entryDy=0;" parent="WIyWlLk6GJQsqaUBKTNV-1" source="-O2qLY4RrY-de6msVh1I-11" target="-O2qLY4RrY-de6msVh1I-12" edge="1">
          <mxGeometry relative="1" as="geometry" />
        </mxCell>
        <mxCell id="-O2qLY4RrY-de6msVh1I-11" value="DECLARE string&lt;br&gt;SET string = &#39;&#39;" style="rounded=0;whiteSpace=wrap;html=1;" parent="WIyWlLk6GJQsqaUBKTNV-1" vertex="1">
          <mxGeometry x="145" y="1940" width="120" height="60" as="geometry" />
        </mxCell>
        <mxCell id="-O2qLY4RrY-de6msVh1I-28" style="edgeStyle=orthogonalEdgeStyle;rounded=0;orthogonalLoop=1;jettySize=auto;html=1;exitX=0.5;exitY=1;exitDx=0;exitDy=0;entryX=0.5;entryY=0;entryDx=0;entryDy=0;" parent="WIyWlLk6GJQsqaUBKTNV-1" source="-O2qLY4RrY-de6msVh1I-12" target="-O2qLY4RrY-de6msVh1I-18" edge="1">
          <mxGeometry relative="1" as="geometry" />
        </mxCell>
        <mxCell id="-O2qLY4RrY-de6msVh1I-33" style="edgeStyle=orthogonalEdgeStyle;rounded=0;orthogonalLoop=1;jettySize=auto;html=1;exitX=1;exitY=0.5;exitDx=0;exitDy=0;entryX=1;entryY=0.5;entryDx=0;entryDy=0;" parent="WIyWlLk6GJQsqaUBKTNV-1" source="-O2qLY4RrY-de6msVh1I-12" target="-O2qLY4RrY-de6msVh1I-25" edge="1">
          <mxGeometry relative="1" as="geometry">
            <Array as="points">
              <mxPoint x="410" y="2120" />
              <mxPoint x="410" y="2645" />
            </Array>
          </mxGeometry>
        </mxCell>
        <mxCell id="-O2qLY4RrY-de6msVh1I-12" value="" style="shape=hexagon;perimeter=hexagonPerimeter2;whiteSpace=wrap;html=1;fixedSize=1;" parent="WIyWlLk6GJQsqaUBKTNV-1" vertex="1">
          <mxGeometry x="63.75" y="2050" width="282.5" height="140" as="geometry" />
        </mxCell>
        <mxCell id="-O2qLY4RrY-de6msVh1I-13" value="i" style="text;html=1;align=center;verticalAlign=middle;resizable=0;points=[];autosize=1;" parent="WIyWlLk6GJQsqaUBKTNV-1" vertex="1">
          <mxGeometry x="194.62" y="2060" width="20" height="20" as="geometry" />
        </mxCell>
        <mxCell id="-O2qLY4RrY-de6msVh1I-14" value="0" style="text;html=1;align=center;verticalAlign=middle;resizable=0;points=[];autosize=1;" parent="WIyWlLk6GJQsqaUBKTNV-1" vertex="1">
          <mxGeometry x="90" y="2110" width="20" height="20" as="geometry" />
        </mxCell>
        <mxCell id="-O2qLY4RrY-de6msVh1I-15" value="len(list)" style="text;html=1;align=center;verticalAlign=middle;resizable=0;points=[];autosize=1;" parent="WIyWlLk6GJQsqaUBKTNV-1" vertex="1">
          <mxGeometry x="280" y="2110" width="50" height="20" as="geometry" />
        </mxCell>
        <mxCell id="-O2qLY4RrY-de6msVh1I-16" value="1" style="text;html=1;align=center;verticalAlign=middle;resizable=0;points=[];autosize=1;" parent="WIyWlLk6GJQsqaUBKTNV-1" vertex="1">
          <mxGeometry x="190" y="2160" width="20" height="20" as="geometry" />
        </mxCell>
        <mxCell id="-O2qLY4RrY-de6msVh1I-17" value="True" style="text;html=1;align=center;verticalAlign=middle;resizable=0;points=[];autosize=1;" parent="WIyWlLk6GJQsqaUBKTNV-1" vertex="1">
          <mxGeometry x="234.62" y="2220" width="40" height="20" as="geometry" />
        </mxCell>
        <mxCell id="-O2qLY4RrY-de6msVh1I-23" style="edgeStyle=orthogonalEdgeStyle;rounded=0;orthogonalLoop=1;jettySize=auto;html=1;exitX=0;exitY=0.5;exitDx=0;exitDy=0;entryX=1;entryY=0.5;entryDx=0;entryDy=0;" parent="WIyWlLk6GJQsqaUBKTNV-1" source="-O2qLY4RrY-de6msVh1I-18" target="-O2qLY4RrY-de6msVh1I-21" edge="1">
          <mxGeometry relative="1" as="geometry" />
        </mxCell>
        <mxCell id="-O2qLY4RrY-de6msVh1I-24" style="edgeStyle=orthogonalEdgeStyle;rounded=0;orthogonalLoop=1;jettySize=auto;html=1;exitX=0.5;exitY=1;exitDx=0;exitDy=0;entryX=0.5;entryY=0;entryDx=0;entryDy=0;" parent="WIyWlLk6GJQsqaUBKTNV-1" source="-O2qLY4RrY-de6msVh1I-18" target="-O2qLY4RrY-de6msVh1I-19" edge="1">
          <mxGeometry relative="1" as="geometry" />
        </mxCell>
        <mxCell id="-O2qLY4RrY-de6msVh1I-18" value="IF i == (len(list) - 1)" style="rhombus;whiteSpace=wrap;html=1;" parent="WIyWlLk6GJQsqaUBKTNV-1" vertex="1">
          <mxGeometry x="135" y="2280" width="141" height="80" as="geometry" />
        </mxCell>
        <mxCell id="-O2qLY4RrY-de6msVh1I-31" style="edgeStyle=orthogonalEdgeStyle;rounded=0;orthogonalLoop=1;jettySize=auto;html=1;exitX=0;exitY=0.5;exitDx=0;exitDy=0;" parent="WIyWlLk6GJQsqaUBKTNV-1" source="-O2qLY4RrY-de6msVh1I-19" edge="1">
          <mxGeometry relative="1" as="geometry">
            <mxPoint x="205" y="2020" as="targetPoint" />
            <Array as="points">
              <mxPoint x="-170" y="2470" />
              <mxPoint x="-170" y="2020" />
            </Array>
          </mxGeometry>
        </mxCell>
        <mxCell id="-O2qLY4RrY-de6msVh1I-19" value="SET string = string + str(list[i]) + &quot;\n&quot;" style="rounded=0;whiteSpace=wrap;html=1;" parent="WIyWlLk6GJQsqaUBKTNV-1" vertex="1">
          <mxGeometry x="101.63" y="2440" width="206.75" height="60" as="geometry" />
        </mxCell>
        <mxCell id="-O2qLY4RrY-de6msVh1I-20" value="True" style="text;html=1;align=center;verticalAlign=middle;resizable=0;points=[];autosize=1;" parent="WIyWlLk6GJQsqaUBKTNV-1" vertex="1">
          <mxGeometry x="214.62" y="2360" width="40" height="20" as="geometry" />
        </mxCell>
        <mxCell id="-O2qLY4RrY-de6msVh1I-41" style="edgeStyle=orthogonalEdgeStyle;rounded=0;orthogonalLoop=1;jettySize=auto;html=1;exitX=0;exitY=0.5;exitDx=0;exitDy=0;" parent="WIyWlLk6GJQsqaUBKTNV-1" source="-O2qLY4RrY-de6msVh1I-21" edge="1">
          <mxGeometry relative="1" as="geometry">
            <mxPoint x="-170" y="2320.3333333333335" as="targetPoint" />
          </mxGeometry>
        </mxCell>
        <mxCell id="-O2qLY4RrY-de6msVh1I-21" value="SET string = string + str(list[i]) + &quot;;&quot;" style="rounded=0;whiteSpace=wrap;html=1;" parent="WIyWlLk6GJQsqaUBKTNV-1" vertex="1">
          <mxGeometry x="-130" y="2290" width="206.75" height="60" as="geometry" />
        </mxCell>
        <mxCell id="-O2qLY4RrY-de6msVh1I-22" value="False" style="text;html=1;align=center;verticalAlign=middle;resizable=0;points=[];autosize=1;" parent="WIyWlLk6GJQsqaUBKTNV-1" vertex="1">
          <mxGeometry x="85" y="2290" width="50" height="20" as="geometry" />
        </mxCell>
        <mxCell id="-O2qLY4RrY-de6msVh1I-25" value="RETURN string" style="ellipse;whiteSpace=wrap;html=1;" parent="WIyWlLk6GJQsqaUBKTNV-1" vertex="1">
          <mxGeometry x="154.62" y="2620" width="100" height="50" as="geometry" />
        </mxCell>
        <mxCell id="-O2qLY4RrY-de6msVh1I-34" value="False" style="text;html=1;align=center;verticalAlign=middle;resizable=0;points=[];autosize=1;" parent="WIyWlLk6GJQsqaUBKTNV-1" vertex="1">
          <mxGeometry x="346.25" y="2080" width="50" height="20" as="geometry" />
        </mxCell>
        <mxCell id="-O2qLY4RrY-de6msVh1I-35" value="db_returnList(fileName)" style="ellipse;whiteSpace=wrap;html=1;" parent="WIyWlLk6GJQsqaUBKTNV-1" vertex="1">
          <mxGeometry x="840" y="1830" width="140" height="50" as="geometry" />
        </mxCell>
        <mxCell id="-O2qLY4RrY-de6msVh1I-36" value="DECLARE list&lt;br&gt;SET list = [ ]" style="rounded=0;whiteSpace=wrap;html=1;" parent="WIyWlLk6GJQsqaUBKTNV-1" vertex="1">
          <mxGeometry x="850" y="1920" width="120" height="60" as="geometry" />
        </mxCell>
        <mxCell id="-O2qLY4RrY-de6msVh1I-37" value="OPENFILE fileName FOR READ" style="whiteSpace=wrap;html=1;" parent="WIyWlLk6GJQsqaUBKTNV-1" vertex="1">
          <mxGeometry x="850" y="2040" width="120" height="60" as="geometry" />
        </mxCell>
        <mxCell id="-O2qLY4RrY-de6msVh1I-38" value="FOR EACH smallList IN&amp;nbsp;" style="rhombus;whiteSpace=wrap;html=1;" parent="WIyWlLk6GJQsqaUBKTNV-1" vertex="1">
          <mxGeometry x="785" y="2160" width="250" height="80" as="geometry" />
        </mxCell>
        <mxCell id="-O2qLY4RrY-de6msVh1I-40" value="WRITEFILE (list_ToSingleString(smallList)" style="shape=process;whiteSpace=wrap;html=1;backgroundOutline=1;" parent="WIyWlLk6GJQsqaUBKTNV-1" vertex="1">
          <mxGeometry x="770" y="2300" width="280" height="60" as="geometry" />
        </mxCell>
        <mxCell id="-O2qLY4RrY-de6msVh1I-42" value="" style="shape=parallelogram;perimeter=parallelogramPerimeter;whiteSpace=wrap;html=1;fixedSize=1;" parent="WIyWlLk6GJQsqaUBKTNV-1" vertex="1">
          <mxGeometry x="850" y="2390" width="120" height="60" as="geometry" />
        </mxCell>
        <mxCell id="9EkuodDJk9AbKjMPJ7wg-3" value="" style="triangle;whiteSpace=wrap;html=1;" parent="WIyWlLk6GJQsqaUBKTNV-1" vertex="1">
          <mxGeometry x="1610" y="2030" width="60" height="80" as="geometry" />
        </mxCell>
        <mxCell id="9EkuodDJk9AbKjMPJ7wg-4" value="" style="whiteSpace=wrap;html=1;aspect=fixed;" parent="WIyWlLk6GJQsqaUBKTNV-1" vertex="1">
          <mxGeometry x="1735" y="2020" width="80" height="80" as="geometry" />
        </mxCell>
        <mxCell id="9EkuodDJk9AbKjMPJ7wg-6" value="" style="shape=document;whiteSpace=wrap;html=1;boundedLbl=1;" parent="WIyWlLk6GJQsqaUBKTNV-1" vertex="1">
          <mxGeometry x="1460" y="2080" width="120" height="80" as="geometry" />
        </mxCell>
        <mxCell id="rEi6_yZZJt-ItmLv775G-1" value="" style="whiteSpace=wrap;html=1;aspect=fixed;" vertex="1" parent="WIyWlLk6GJQsqaUBKTNV-1">
          <mxGeometry x="1770" y="1910" width="80" height="80" as="geometry" />
        </mxCell>
        <mxCell id="rEi6_yZZJt-ItmLv775G-2" value="" style="whiteSpace=wrap;html=1;aspect=fixed;" vertex="1" parent="WIyWlLk6GJQsqaUBKTNV-1">
          <mxGeometry x="1570" y="1940" width="80" height="80" as="geometry" />
        </mxCell>
        <mxCell id="rEi6_yZZJt-ItmLv775G-3" value="" style="whiteSpace=wrap;html=1;aspect=fixed;" vertex="1" parent="WIyWlLk6GJQsqaUBKTNV-1">
          <mxGeometry x="1775" y="2060" width="80" height="80" as="geometry" />
        </mxCell>
      </root>
    </mxGraphModel>
  </diagram>
</mxfile>
